<?xml version="1.0" standalone="no"?>
<!DOCTYPE svg PUBLIC "-//W3C//DTD SVG 20010904//EN"
 "http://www.w3.org/TR/2001/REC-SVG-20010904/DTD/svg10.dtd">
<svg version="1.0" xmlns="http://www.w3.org/2000/svg"
 width="2000.000000pt" height="2000.000000pt" viewBox="0 0 2000.000000 2000.000000"
 preserveAspectRatio="xMidYMid meet">

<g transform="translate(0.000000,2000.000000) scale(0.100000,-0.100000)"
fill="#000000" stroke="none">
<path d="M5428 16123 c10 -16 512 -739 1114 -1608 602 -869 1462 -2109 1910
-2755 l814 -1175 172 -3 172 -2 0 187 0 188 -1025 1485 c-564 817 -1371 1985
-1793 2597 l-767 1112 -308 1 -308 0 19 -27z"/>
<path d="M13278 15127 c-389 -562 -1198 -1731 -1797 -2597 l-1090 -1575 -1
-187 0 -188 163 0 c144 0 166 2 179 18 9 9 461 658 1005 1442 544 784 1380
1988 1858 2675 478 688 897 1292 932 1343 l65 92 -304 0 -303 -1 -707 -1022z"/>
<path d="M9105 9148 c-104 -150 -477 -687 -828 -1193 -351 -506 -1130 -1628
-1730 -2492 -601 -865 -1098 -1582 -1106 -1593 -14 -20 -13 -20 290 -18 l303
3 721 1045 c396 575 1201 1742 1788 2593 l1067 1548 0 189 0 190 -158 0 -158
0 -189 -272z"/>
<path d="M10390 9218 l0 -203 1151 -1670 c634 -918 1341 -1944 1572 -2280 231
-335 514 -746 629 -912 l209 -303 305 0 c220 0 303 3 298 11 -7 12 -1533 2212
-1958 2824 -150 215 -638 918 -1085 1563 l-814 1172 -153 0 -154 0 0 -202z"/>
</g>
</svg>
